<?xml version="1.0" encoding="UTF-8"?>
<!-- Generator: visioncortex VTracer 0.6.4 -->
<svg version="1.1" xmlns="http://www.w3.org/2000/svg" width="2179" height="1020">
<path d="M0 0 C50.82 0 101.64 0 154 0 C153.12924056 4.35379721 152.20761753 6.89372132 150.19140625 10.7265625 C149.60810547 11.84289062 149.02480469 12.95921875 148.42382812 14.109375 C147.80958984 15.26953125 147.19535156 16.4296875 146.5625 17.625 C145.98306641 18.73101562 145.40363281 19.83703125 144.80664062 20.9765625 C142.10380721 26.13039437 139.38416005 31.27521538 136.65893555 36.41723633 C130.51990726 48.01750505 124.55206425 59.69623038 118.6875 71.4375 C118.23156464 72.3493103 117.77562927 73.26112061 117.30587769 74.20056152 C110.12805233 88.56966938 103.20583566 103.02385087 96.54345703 117.63964844 C94.90345436 121.21019523 93.23566879 124.76708808 91.55859375 128.3203125 C74.01373005 165.51965852 58.32363383 203.44749994 44 242 C43.60329102 243.05703125 43.20658203 244.1140625 42.79785156 245.203125 C22.21004599 300.14995898 2.76542004 361.99160875 22 420 C22.20963379 420.65307129 22.41926758 421.30614258 22.63525391 421.97900391 C29.49552103 443.03511246 40.8168238 462.57853832 55.9140625 478.76171875 C57.86444383 480.85454366 59.71631367 483.00298541 61.5625 485.1875 C82.62722642 509.16594141 114.52219478 523.8047676 145 531 C145.7429834 531.17789063 146.4859668 531.35578125 147.25146484 531.5390625 C174.96775154 537.83566313 205.27371685 534.97681556 232 526 C232.66596191 525.77973145 233.33192383 525.55946289 234.01806641 525.33251953 C274.80558806 511.63053922 308.39268143 481.26659216 327.93701172 443.18066406 C350.02795828 397.86225923 347.47010391 351.75325329 335 304 C334.76506836 303.07123047 334.53013672 302.14246094 334.28808594 301.18554688 C325.05221631 264.83295848 311.43224311 229.5602201 297 195 C296.68117859 194.23578735 296.36235718 193.47157471 296.03387451 192.6842041 C277.58737053 148.53363243 257.33088894 105.12696835 235.74005127 62.43019104 C234.18850641 59.36146373 232.64370547 56.28965237 231.11206055 53.2109375 C227.49459635 45.94020223 223.82889718 38.69747474 220.09765625 31.484375 C219.68467285 30.68530731 219.27168945 29.88623962 218.84619141 29.06295776 C217.15111489 25.78435547 215.45536579 22.50612558 213.75366211 19.23095703 C212.48953603 16.79653691 211.23067035 14.35945785 209.97265625 11.921875 C209.39464012 10.81413727 209.39464012 10.81413727 208.8049469 9.684021 C207.12835326 6.42623627 205.8940206 3.57608241 205 0 C255.82 0 306.64 0 359 0 C359 13 359 13 355.125 17 C354.30386719 17.61617188 353.48273438 18.23234375 352.63671875 18.8671875 C343.44419789 26.30291548 337.48205009 37.72422897 332 48 C331.29230469 49.27617187 331.29230469 49.27617187 330.5703125 50.578125 C315.59738536 78.66398833 314.37802601 113.49728465 323.515625 143.5703125 C329.4577988 161.93629954 338.81372717 177.38173478 351.80859375 191.5859375 C353.77396986 193.75100423 355.67225413 195.95709599 357.5625 198.1875 C359.8477845 200.81951732 362.2147324 203.12400434 364.875 205.375 C369.72544105 209.52059685 373.85832408 214.15526181 378 219 C378.47566406 219.55268555 378.95132812 220.10537109 379.44140625 220.67480469 C393.40446926 237.00373195 405.15635333 254.91394588 415 274 C415.52086182 275.00281006 415.52086182 275.00281006 416.05224609 276.02587891 C432.8035765 308.70417899 442.15849796 346.30319385 443 383 C443.02046387 383.76876465 443.04092773 384.5375293 443.06201172 385.32958984 C444.47724495 445.08518155 426.51785994 505.97665539 389 553 C388.35933594 553.83144531 387.71867187 554.66289063 387.05859375 555.51953125 C374.40001048 571.75831989 359.43393365 587.5721222 343 600 C342.17580566 600.63083496 342.17580566 600.63083496 341.33496094 601.27441406 C319.25270217 618.12379528 295.09950892 631.45168266 269 641 C267.16888672 641.68642578 267.16888672 641.68642578 265.30078125 642.38671875 C238.01812719 652.07160267 209.22571891 656.22689656 180.375 656.25 C179.22781998 656.25101212 179.22781998 656.25101212 178.0574646 656.25204468 C163.87638741 656.23233723 150.01367589 655.28188098 136 653 C134.53989502 652.76651855 134.53989502 652.76651855 133.05029297 652.52832031 C108.45772272 648.42067647 84.2980401 640.09994866 62 629 C61.26007813 628.63551758 60.52015625 628.27103516 59.7578125 627.89550781 C27.1355737 611.68454441 -3.83875083 586.95053359 -26 558 C-26.78246094 557.02289062 -27.56492188 556.04578125 -28.37109375 555.0390625 C-53.7097282 523.23745678 -70.63936924 485.05218045 -78.75 445.3125 C-78.94883789 444.34006348 -79.14767578 443.36762695 -79.35253906 442.36572266 C-82.52117855 426.00347706 -83.37432248 410.00795706 -83.3125 393.375 C-83.31067719 392.35775848 -83.30885437 391.34051697 -83.30697632 390.29244995 C-83.26278228 375.65414687 -82.83673201 361.39968373 -80 347 C-79.8443457 346.12182617 -79.68869141 345.24365234 -79.52832031 344.33886719 C-69.91307655 290.23632795 -42.59970171 241.75901596 -3.48046875 203.54296875 C-0.99298999 201.08841727 -0.99298999 201.08841727 0.94921875 198.48828125 C3 196 3 196 5.9453125 193.5625 C26.05463151 176.69330145 37.9997524 146.1134212 40.7890625 120.53417969 C43.56403186 87.19600616 35.75469525 53.09954694 14 27 C9.51771066 21.8263158 4.84021274 16.84021274 0 12 C0 8.04 0 4.08 0 0 Z " fill="#575857" transform="translate(83,324)"/>
<path d="M0 0 C13.86 0 27.72 0 42 0 C42 133.65 42 267.3 42 405 C28.14 405 14.28 405 0 405 C-0.33 392.79 -0.66 380.58 -1 368 C-3.97 371.96 -6.94 375.92 -10 380 C-26.25774388 398.75893524 -48.63296766 408.67088957 -73.23046875 410.74609375 C-92.60355934 411.99016378 -112.27212415 409.03094135 -130 401 C-130.6300293 400.71640625 -131.26005859 400.4328125 -131.90917969 400.140625 C-141.47244793 395.7772972 -149.87273541 390.74365302 -158 384 C-159.27423828 382.97132813 -159.27423828 382.97132813 -160.57421875 381.921875 C-185.04227024 361.17972774 -197.03954507 329.96646763 -199.6875 298.6875 C-202.14061456 264.78991696 -195.61771307 228.96977789 -173.046875 202.43359375 C-170.15082599 199.16632815 -167.11242609 196.06030412 -164 193 C-163.17757813 192.17886719 -162.35515625 191.35773438 -161.5078125 190.51171875 C-138.09673746 168.29038687 -106.36668278 160.21545682 -74.86328125 160.75 C-51.62049737 161.49843935 -29.54068543 171.30541587 -13.12890625 187.80859375 C-8.2609518 193.02374257 -4.85689684 197.82896506 -1 204 C-0.67 136.68 -0.34 69.36 0 0 Z M-139 229 C-154.52094786 248.57572836 -159.08699973 274.37718515 -156.3125 298.8125 C-153.38855689 320.6292238 -144.79066854 339.80183717 -127.5 353.9375 C-109.7330168 366.69570602 -87.50649444 373.63083954 -65.63989258 370.24780273 C-44.91687702 366.41355522 -27.11198843 355.2105132 -15 338 C-3.93896499 321.40844749 1.4853665 301.00504247 0 281 C-0.13728516 279.14181641 -0.13728516 279.14181641 -0.27734375 277.24609375 C-2.39223423 253.41152617 -11.87462604 233.03502515 -30.19921875 217.1328125 C-64.1375975 191.28852408 -110.97685357 196.93095857 -139 229 Z " fill="#41CD52" transform="translate(1629,501)"/>
<path d="M0 0 C13.79009168 12.82607655 24.85434012 27.54789965 32.875 44.625 C32.875 45.285 32.875 45.945 32.875 46.625 C32.13975098 47.04797363 31.40450195 47.47094727 30.64697266 47.90673828 C27.86953344 49.50512946 25.09257435 51.10435093 22.31591797 52.70410156 C21.12339573 53.3909482 19.93069303 54.07748165 18.73779297 54.76367188 C17.00438559 55.76085493 15.27172209 56.7593307 13.5390625 57.7578125 C12.41145508 58.40524414 11.28384766 59.05267578 10.12207031 59.71972656 C6.3388302 61.9396067 2.64238764 64.28226786 -1.02587891 66.68701172 C-3.125 67.625 -3.125 67.625 -5.25854492 67.47631836 C-8.61924447 65.94345252 -10.02884449 62.40250466 -11.8125 59.3125 C-24.30817441 38.55426629 -39.62517305 21.67705082 -63.63671875 14.91796875 C-81.64880924 10.886277 -102.81154935 11.23286868 -119.0625 20.75 C-126.93127719 26.21833177 -132.48251699 33.81751463 -136.125 42.625 C-136.516875 43.553125 -136.90875 44.48125 -137.3125 45.4375 C-140.72119662 58.81007903 -138.4932077 71.47823346 -132.125 83.625 C-130.02638681 86.86505403 -127.69693486 89.75048457 -125.125 92.625 C-124.55265625 93.29015625 -123.9803125 93.9553125 -123.390625 94.640625 C-106.88147974 112.56080832 -79.70558573 121.15765844 -57.61865234 129.69873047 C-46.12711088 134.15115024 -34.94626309 138.7202747 -24.125 144.625 C-23.52059082 144.94533203 -22.91618164 145.26566406 -22.29345703 145.59570312 C-13.79714357 150.10257966 -6.3871721 155.31324639 0.875 161.625 C1.95645156 162.48154792 3.03942668 163.33618198 4.125 164.1875 C22.38185574 180.36971304 33.8517676 203.37588528 35.875 227.625 C37.36792596 257.75575866 31.46295267 283.67288051 10.875 306.625 C4.44272093 313.58466945 -2.08503597 319.5939316 -10.125 324.625 C-11.03765625 325.20894531 -11.9503125 325.79289062 -12.890625 326.39453125 C-39.95677113 343.00330274 -73.70923737 347.5204718 -104.5546875 340.55859375 C-139.19924411 331.49945914 -166.87080317 310.0299003 -188.125 281.625 C-188.75148438 280.79355469 -189.37796875 279.96210937 -190.0234375 279.10546875 C-193.83716496 273.85040297 -197.18203397 268.32575704 -200.5 262.75 C-200.94158447 262.01160889 -201.38316895 261.27321777 -201.83813477 260.51245117 C-202.24990967 259.80967041 -202.66168457 259.10688965 -203.0859375 258.3828125 C-203.63967041 257.44139404 -203.63967041 257.44139404 -204.20458984 256.48095703 C-205.16400497 254.54634861 -205.6801674 252.73256208 -206.125 250.625 C-201.76515144 247.67075657 -197.40520434 244.71665866 -193.04516602 241.76269531 C-191.56206601 240.75785249 -190.07899289 239.75296996 -188.59594727 238.74804688 C-186.46377526 237.30328084 -184.33150645 235.85865778 -182.19921875 234.4140625 C-181.53661545 233.96503571 -180.87401215 233.51600891 -180.19132996 233.05337524 C-172.17806057 227.625 -172.17806057 227.625 -169.125 227.625 C-167.93334961 229.05517578 -167.93334961 229.05517578 -166.77734375 231.0703125 C-166.34244629 231.81047607 -165.90754883 232.55063965 -165.45947266 233.31323242 C-164.99847168 234.11736572 -164.5374707 234.92149902 -164.0625 235.75 C-154.16361628 252.42999588 -142.65637455 269.6567055 -127.125 281.625 C-126.34382813 282.26566406 -125.56265625 282.90632813 -124.7578125 283.56640625 C-106.65794342 297.71867777 -84.55349273 301.82390026 -62.015625 299.39794922 C-49.55419966 297.60282011 -38.51495405 292.9950714 -29.125 284.625 C-28.43664063 284.05265625 -27.74828125 283.4803125 -27.0390625 282.890625 C-18.54516921 275.27541032 -12.84500171 263.52191433 -11.92382812 252.13916016 C-11.82095628 249.40145795 -11.79614229 246.67706136 -11.8125 243.9375 C-11.81741455 242.96651367 -11.8223291 241.99552734 -11.82739258 240.99511719 C-12.11422288 223.34990569 -18.02740434 210.44238354 -30.04296875 197.5703125 C-46.65528544 181.56850649 -70.64867799 174.2043394 -91.73828125 166.19018555 C-132.73219406 150.60263804 -132.73219406 150.60263804 -149.125 137.625 C-150.59453125 136.48224609 -150.59453125 136.48224609 -152.09375 135.31640625 C-170.43909309 120.69437876 -182.09517598 102.78490817 -186.125 79.625 C-186.28742188 78.7071875 -186.44984375 77.789375 -186.6171875 76.84375 C-189.7717163 52.53079629 -183.85892337 28.29001337 -169.43359375 8.5859375 C-151.73138647 -14.11841634 -127.20768726 -26.31414576 -99.046875 -30.09765625 C-62.06611862 -34.49253044 -27.84607487 -25.17863927 0 0 Z " fill="#41CD52" transform="translate(1301.125,568.375)"/>
<path d="M0 0 C1.21067642 0.05161285 2.42135284 0.10322571 3.66871643 0.15640259 C4.92398636 0.17055206 6.17925629 0.18470154 7.4725647 0.19927979 C10.79138938 0.24564886 14.10318158 0.33521649 17.4200592 0.44631958 C20.81157512 0.54911746 24.20382199 0.59439253 27.59645081 0.64468384 C34.23835056 0.75473953 40.87695618 0.92190737 47.51637268 1.13296509 C46.123437 3.98204241 44.6344854 6.49195118 42.75074768 9.04702759 C41.92123596 10.17431274 41.92123596 10.17431274 41.07496643 11.32437134 C40.17971252 12.52900024 40.17971252 12.52900024 39.26637268 13.75796509 C38.3324469 15.02060181 38.3324469 15.02060181 37.37965393 16.30874634 C32.60523946 22.73547326 27.71056932 29.06121247 22.76930237 35.36001587 C18.58371439 40.71267169 14.52554003 46.14720709 10.51637268 51.63296509 C5.39117252 58.64579477 0.12779452 65.53001449 -5.23362732 72.36343384 C-9.41790817 77.71520377 -13.47527441 83.14846881 -17.48362732 88.63296509 C-22.64905691 95.69912828 -27.9455553 102.64497068 -33.3434906 109.53482056 C-39.17134217 116.98234783 -44.83962822 124.54561099 -50.48362732 132.13296509 C-49.55421326 131.85581665 -48.62479919 131.57866821 -47.66722107 131.29312134 C-46.43101013 130.93089478 -45.19479919 130.56866821 -43.92112732 130.19546509 C-42.70296326 129.83581665 -41.48479919 129.47616821 -40.22972107 129.10562134 C-14.27055412 122.36544139 14.45163611 126.92106425 37.60621643 139.85952759 C62.56176125 155.18986227 80.9953749 179.13540094 89.51637268 207.13296509 C89.83396545 208.16212036 89.83396545 208.16212036 90.15797424 209.21206665 C96.76395319 231.89852684 96.11541398 260.54982211 89.51637268 283.13296509 C89.33977112 283.78877563 89.16316956 284.44458618 88.98121643 285.12026978 C80.56479181 316.12076711 58.516208 340.24876284 31.20777893 356.04702759 C1.1614804 372.11418841 -37.48344657 374.40969887 -69.90940857 364.67984009 C-100.35938984 354.77591998 -126.20999223 333.8280206 -140.79612732 305.19546509 C-156.29251982 273.4538406 -158.1515512 234.89955209 -147.29612732 201.44546509 C-141.84015335 185.63163181 -134.21665174 172.75287779 -124.18919373 159.41519165 C-121.40506773 155.68973935 -118.69800263 151.90936232 -115.98362732 148.13296509 C-114.89934254 146.63140975 -113.81470687 145.13010772 -112.72972107 143.62905884 C-110.57357433 140.64387401 -108.42015228 137.65675121 -106.26878357 134.66812134 C-100.13606053 126.15375828 -93.95129942 117.68080307 -87.71653748 109.24087524 C-82.11930558 101.65627669 -76.59954105 94.01708179 -71.09251404 86.36685181 C-67.85216537 81.8677334 -64.6033503 77.3747239 -61.35618591 72.88052368 C-58.6576471 69.14502009 -55.96104779 65.40815029 -53.26878357 61.66812134 C-47.7155806 53.95833469 -42.12920999 46.27542282 -36.48362732 38.63296509 C-31.80665196 32.30108002 -27.15663849 25.95093912 -22.54612732 19.57046509 C-22.03888123 18.86921509 -21.53163513 18.16796509 -21.00901794 17.44546509 C-20.5172406 16.76355103 -20.02546326 16.08163696 -19.51878357 15.37905884 C-19.04639252 14.74317337 -18.57400146 14.1072879 -18.08729553 13.45213318 C-16.42856574 11.14922903 -16.42856574 11.14922903 -15.11836243 8.56513977 C-11.11379963 1.53769373 -8.01370422 -0.00530646 0 0 Z M-81.48362732 178.13296509 C-82.15651794 178.6756604 -82.82940857 179.21835571 -83.52268982 179.77749634 C-99.30481375 192.8701572 -107.77735792 213.18769226 -110.48362732 233.13296509 C-110.75932183 236.88864645 -110.81825098 240.61809478 -110.79612732 244.38296509 C-110.79121277 245.38440552 -110.78629822 246.38584595 -110.78123474 247.41763306 C-110.38711477 272.54833943 -100.22686792 292.67947738 -82.57347107 310.00796509 C-66.88795629 324.24729766 -45.16569659 329.86499361 -24.40257263 329.05142212 C-2.30456931 327.6047183 17.36217158 317.74419485 32.09059143 301.25015259 C48.7553244 280.03020399 53.15655497 254.83021103 50.21607971 228.43765259 C46.68991982 206.66080778 34.79233274 187.39355277 17.30152893 174.01187134 C-12.38066609 153.98783795 -53.96654532 154.41348943 -81.48362732 178.13296509 Z " fill="#575857" transform="translate(2085.483627319336,541.8670349121094)"/>
<path d="M0 0 C157.24591503 0 157.24591503 0 194.125 34.6875 C216.98728277 58.80383203 222.84635031 86.74474071 222.23699951 119.09080505 C222.00516331 127.42815621 220.67379805 135.11711341 218 143 C217.77505859 143.66757324 217.55011719 144.33514648 217.31835938 145.02294922 C207.9049565 172.05082566 188.27570389 192.4926989 162.90234375 205.1875 C125.66874862 222.93479301 85.87659752 218 45 218 C45 265.85 45 313.7 45 363 C30.15 363 15.3 363 0 363 C0 243.21 0 123.42 0 0 Z M45 42 C45 86.22 45 130.44 45 176 C87.70481144 178.03976009 87.70481144 178.03976009 130.6875 171.75 C131.40099609 171.53456543 132.11449219 171.31913086 132.84960938 171.09716797 C147.7261789 166.39700519 161.89891125 156.58053735 169.79296875 142.890625 C171.36842313 139.63857597 172.73009021 136.38235588 174 133 C174.3403125 132.12472656 174.680625 131.24945312 175.03125 130.34765625 C180.2276854 113.96445019 178.46248166 93.17776826 171.25 77.75 C162.74303423 61.96024158 148.90239353 51.56713157 131.81884766 46.33154297 C103.37742954 38.49013038 74.89725282 42 45 42 Z " fill="#41CD52" transform="translate(626,543)"/>
<path d="M0 0 C1.20140625 0.26683594 2.4028125 0.53367187 3.640625 0.80859375 C17.43489586 4.28809032 30.01399366 11.0144804 41 20 C42.35158203 21.08861328 42.35158203 21.08861328 43.73046875 22.19921875 C67.74513789 42.6912848 77.78367914 73.20601941 80.43554688 103.79907227 C81.20433386 113.6291705 81.62749694 123.23501833 80 133 C18.29 133 -43.42 133 -107 133 C-104.05071296 149.71262659 -101.44032178 163.99310175 -92 178 C-91.47792969 178.79921875 -90.95585938 179.5984375 -90.41796875 180.421875 C-80.56901011 194.32064874 -64.36028045 201.90793007 -48 205 C-26.02763464 208.70443185 -2.66057287 204.22339851 16 192 C18.81249428 189.67357004 21.46838793 187.27730872 24.07421875 184.72265625 C26 183 26 183 28 183 C28.27199219 182.40703125 28.54398438 181.8140625 28.82421875 181.203125 C29.97190341 179.05264611 31.16943892 177.53612444 32.8125 175.75 C36.03028383 172.10528662 38.54356192 168.1846401 41 164 C45.12600585 164.56936006 47.78749032 165.90113414 51.23828125 168.203125 C52.22376953 168.85410156 53.20925781 169.50507812 54.22460938 170.17578125 C55.24361328 170.86027344 56.26261719 171.54476562 57.3125 172.25 C59.32900564 173.58917649 61.34592506 174.92773014 63.36328125 176.265625 C64.32057129 176.90306641 65.27786133 177.54050781 66.26416016 178.19726562 C69.80437581 180.53002954 73.39114838 182.77518825 77 185 C73.22247465 192.4944431 68.4478 198.63477535 63 205 C62.4225 205.71285156 61.845 206.42570313 61.25 207.16015625 C42.18906397 230.20739381 12.13958007 242.70352669 -17 246 C-51.74470669 248.59180485 -83.04681078 243.85208384 -110.6015625 221.078125 C-135.65950002 199.36668728 -147.97303527 168.38607678 -150.6875 135.8125 C-150.81089044 133.54263006 -150.91557156 131.27165283 -151 129 C-151.04125 127.94167969 -151.0825 126.88335938 -151.125 125.79296875 C-151.81130453 89.63329879 -142.19992392 56.02129261 -117.30371094 29.26269531 C-87.49837612 -1.49277492 -40.59587118 -9.41530747 0 0 Z M-80 49 C-80.70898438 49.54527344 -81.41796875 50.09054687 -82.1484375 50.65234375 C-94.27549877 60.52590896 -101.57299255 75.98164384 -105 91 C-105 92.65 -105 94.3 -105 96 C-59.13 96 -13.26 96 34 96 C34 79.48054833 27.61184655 65.02538921 16.16796875 53.140625 C15.45253906 52.43421875 14.73710938 51.7278125 14 51 C13.45988281 50.43796875 12.91976563 49.8759375 12.36328125 49.296875 C-0.25110684 37.22264963 -19.03734801 33.63583116 -35.828125 33.78515625 C-52.00829799 34.40128867 -67.22663372 38.83837012 -80 49 Z " fill="#41CD52" transform="translate(1834,665)"/>
<path d="M0 0 C16.5 0 33 0 50 0 C55.6250864 12.37519008 55.6250864 12.37519008 57.34912109 16.61865234 C57.74138885 17.581008 58.13365662 18.54336365 58.53781128 19.53488159 C58.94556793 20.54173004 59.35332458 21.54857849 59.7734375 22.5859375 C60.21366241 23.66779327 60.65388733 24.74964905 61.10745239 25.86428833 C62.53212467 29.36698677 63.95359797 32.87097337 65.375 36.375 C66.37286106 38.83015365 67.37090975 41.28523106 68.36914062 43.74023438 C71.24924804 50.82554432 74.12539767 57.91245502 77 65 C77.36967896 65.91140747 77.73935791 66.82281494 78.12023926 67.76184082 C80.81764278 74.41263144 83.51368606 81.06397227 86.20727539 87.71630859 C93.03317805 104.56984644 99.90134441 121.40620736 106.765625 138.24414062 C107.22994431 139.38322876 107.69426361 140.52231689 108.1726532 141.69592285 C109.04896896 143.84564598 109.92543594 145.99530748 110.80207825 148.14489746 C111.1945726 149.1077063 111.58706696 150.07051514 111.99145508 151.0625 C112.33259842 151.89910156 112.67374176 152.73570312 113.02522278 153.59765625 C114.02509258 156.06184081 115.01439475 158.53007933 116 161 C119.11294018 155.00756834 121.70132675 148.94096267 124.1328125 142.64453125 C124.52176697 141.64707382 124.91072144 140.64961639 125.3114624 139.62193298 C126.1484696 137.47483969 126.98386897 135.32711905 127.81781006 133.17883301 C130.06244926 127.39833945 132.32070952 121.62316977 134.578125 115.84765625 C135.26616714 114.08631851 135.26616714 114.08631851 135.96810913 112.28939819 C140.21739127 101.42158683 144.53145822 90.58043183 148.875 79.75 C149.22934113 78.86626709 149.58368225 77.98253418 149.94876099 77.07202148 C151.4190164 73.40574459 152.889656 69.73962237 154.36109924 66.07382202 C157.31670988 58.7090997 160.26334221 51.34080871 163.20705414 43.97132492 C163.97600806 42.04632316 164.74509155 40.12137321 165.51422119 38.19644165 C165.76655014 37.5649225 166.01887909 36.93340336 166.27885437 36.28274727 C166.78655391 35.01210043 167.29425451 33.74145402 167.80195618 32.47080803 C169.05262236 29.34058061 170.3030328 26.21025147 171.55291748 23.07971191 C172.94203269 19.60099898 174.33222298 16.12271752 175.72265625 12.64453125 C176.1415361 11.59475601 176.56041595 10.54498077 176.99198914 9.46339417 C177.37498672 8.50585739 177.75798431 7.54832062 178.15258789 6.56176758 C178.48690323 5.72486893 178.82121857 4.88797028 179.16566467 4.02571106 C180 2 180 2 181 0 C196.84 0 212.68 0 229 0 C226.75019829 6.74940512 226.75019829 6.74940512 225.31445312 9.9777832 C224.99158325 10.7075386 224.66871338 11.43729401 224.33605957 12.18916321 C223.81392883 13.35816414 223.81392883 13.35816414 223.28125 14.55078125 C222.91157104 15.38461838 222.54189209 16.21845551 222.16101074 17.07756042 C221.36178244 18.87954497 220.56132391 20.68098427 219.75976562 22.48193359 C218.03856825 26.34929063 216.32335526 30.21929165 214.60791016 34.08920288 C213.71854447 36.09553348 212.8288929 38.10173738 211.93896484 40.1078186 C207.96916478 49.05934453 204.02962948 58.02396581 200.09890747 66.9927063 C193.61031627 81.79723196 187.09787292 96.59106729 180.5625 111.375 C180.16918488 112.26475525 179.77586975 113.1545105 179.37063599 114.07122803 C176.18201215 121.28395863 172.99209438 128.4961168 169.80212402 135.70825195 C167.01331109 142.01356726 164.22501077 148.3191089 161.4375 154.625 C161.04410431 155.51491638 160.65070862 156.40483276 160.24539185 157.32171631 C154.4771088 170.37247703 148.73115781 183.43289751 143 196.5 C136.87407899 210.46716691 130.72893003 224.425668 124.5625 238.375 C124.16918488 239.26475525 123.77586975 240.1545105 123.37063599 241.07122803 C120.18201215 248.28395863 116.99209438 255.4961168 113.80212402 262.70825195 C111.01331109 269.01356726 108.22502676 275.31911597 105.4375 281.625 C104.85488403 282.94292542 104.85488403 282.94292542 104.26049805 284.28747559 C97.4098072 299.78675356 90.58989994 315.29945363 83.78491211 330.81884766 C83.42561615 331.63812744 83.06632019 332.45740723 82.69613647 333.30151367 C82.03471696 334.80987828 81.37350222 336.31833271 80.71255493 337.8269043 C78.4916542 342.89223964 76.24636017 347.94568963 74 353 C58.16 353 42.32 353 26 353 C28.04307683 346.8707695 30.15347552 341.08539942 32.78125 335.2265625 C33.14691574 334.40212143 33.51258148 333.57768036 33.889328 332.72825623 C35.08908847 330.02546527 36.29455671 327.32526058 37.5 324.625 C38.3504493 322.71169958 39.20045764 320.7982031 40.05004883 318.88452148 C41.81635981 314.90680526 43.58456571 310.92993932 45.35400391 306.95361328 C47.88463612 301.26353913 50.4036547 295.56839466 52.91796875 289.87109375 C53.5129567 288.52294083 53.5129567 288.52294083 54.1199646 287.14755249 C54.91445821 285.34712893 55.70890229 283.54668351 56.5032959 281.74621582 C61.48585401 270.45443764 66.47467033 259.16561028 71.50390625 247.89453125 C72.04606026 246.67858025 72.04606026 246.67858025 72.59916687 245.43806458 C74.59022118 240.97265745 76.58507631 236.50899805 78.58569336 232.04786682 C79.18034583 230.70831359 79.76715759 229.36524959 80.34570312 228.0186615 C81.84797277 224.52243877 83.43799627 221.13467858 85.2277832 217.77539062 C89.40143887 209.77579115 89.40143887 209.77579115 89.37158203 201.01123047 C87.93186883 196.69777998 85.81639781 192.75438504 83.6875 188.75 C82.92716586 187.20700418 82.17377086 185.66057281 81.42675781 184.11108398 C79.82201613 180.79286958 78.19063653 177.48971831 76.54248047 174.19287109 C72.59135861 166.21223586 69.06426052 158.04079495 65.49041748 149.88635254 C63.39957449 145.12647744 61.28228475 140.37838883 59.16796875 135.62890625 C58.31023655 133.6994471 57.4526525 131.76992209 56.59521484 129.84033203 C56.16819275 128.87943665 55.74117065 127.91854126 55.3012085 126.92852783 C53.55105399 122.98959245 51.80159684 119.05034757 50.05221558 115.11106873 C38.81120405 89.78987698 38.81120405 89.78987698 27.5 64.5 C25.96495398 61.07706502 24.43053021 57.6538521 22.89648438 54.23046875 C21.44086738 50.98243715 19.9832642 47.73530056 18.52539062 44.48828125 C16.22326618 39.35924655 13.92715404 34.2275483 11.6340332 29.09448242 C10.71709073 27.04434203 9.79833063 24.99501355 8.87768555 22.9465332 C7.58552442 20.07064517 6.29987029 17.19192986 5.015625 14.3125 C4.42911163 13.01294373 4.42911163 13.01294373 3.83074951 11.68713379 C3.47184631 10.87901245 3.11294312 10.07089111 2.74316406 9.23828125 C2.42929749 8.53743408 2.11543091 7.83658691 1.79205322 7.11450195 C1 5 1 5 0 0 Z " fill="#41CD52" transform="translate(858,667)"/>
<path d="M0 0 C5.98420168 6.23807691 8.24184508 12.36690325 8.2746582 21.04003906 C8.27976913 21.7173558 8.28488007 22.39467255 8.29014587 23.09251404 C8.30396955 25.31697597 8.30309001 27.54112538 8.30078125 29.765625 C8.30467337 31.32493198 8.3090091 32.8842379 8.31376648 34.44354248 C8.32121409 37.70832762 8.32094894 40.9730046 8.31567383 44.23779297 C8.30989425 48.39797165 8.32678039 52.55770294 8.3500185 56.71780777 C8.36483774 59.93854309 8.36561626 63.15917284 8.36250877 66.37993622 C8.36301832 67.91235995 8.36818625 69.44479017 8.37832069 70.97718048 C8.45238967 83.74716838 7.70401797 93.34921737 -1.48046875 102.80078125 C-12.19728251 112.15514737 -25.65953423 112.28761179 -39.19148445 112.30496025 C-41.52661868 112.3086797 -43.86134883 112.32555256 -46.19639587 112.34571838 C-52.82689875 112.40061883 -59.45745691 112.43179152 -66.08813477 112.45629883 C-70.16638829 112.47226828 -74.24434705 112.50257186 -78.32244682 112.54106331 C-79.86320279 112.55261741 -81.40401158 112.55864281 -82.94481087 112.55874443 C-96.34234539 112.55994934 -106.66056791 113.72728336 -116.46484375 123.453125 C-125.12819542 133.88074586 -124.64002356 149.10494519 -124.75 161.875 C-124.77823828 163.54560269 -124.80817627 165.21617754 -124.83984375 166.88671875 C-124.91276295 170.92442753 -124.96289957 174.96180983 -125 179 C-129.47894321 179.11712011 -133.95748714 179.1875608 -138.4375 179.25 C-139.69755859 179.28351563 -140.95761719 179.31703125 -142.25585938 179.3515625 C-153.31796518 179.46709363 -161.96371545 176.85550923 -170 169 C-182.34712761 153.85487465 -184.39569306 134.02289091 -184.3125 115.1875 C-184.30758545 113.86959473 -184.3026709 112.55168945 -184.29760742 111.19384766 C-184.08632269 93.63879482 -181.65139659 76.23569804 -169 63 C-160.65835831 55.16252347 -152.49165447 52.51825068 -141.16577148 52.65942383 C-140.22811447 52.65898575 -139.29045746 52.65854767 -138.3243866 52.65809631 C-135.25640293 52.6601694 -132.18898075 52.68343019 -129.12109375 52.70703125 C-126.98161619 52.71263247 -124.84213477 52.71690008 -122.70265198 52.71989441 C-117.0950136 52.73130172 -111.4876115 52.76073337 -105.88006592 52.79400635 C-100.14859207 52.82479614 -94.41707974 52.83841874 -88.68554688 52.85351562 C-77.45692793 52.88560712 -66.22848368 52.93675346 -55 53 C-55 50.36 -55 47.72 -55 45 C-55.77452011 45.00222061 -56.54904022 45.00444122 -57.34703064 45.00672913 C-64.63121021 45.02673134 -71.91537655 45.04197377 -79.19957638 45.05181217 C-82.94483037 45.05704014 -86.69006176 45.06413622 -90.43530273 45.07543945 C-94.04681687 45.08627141 -97.65830921 45.09227749 -101.26983833 45.09487724 C-102.65060329 45.09673094 -104.031367 45.10035049 -105.41212273 45.10573006 C-107.33975952 45.11294447 -109.26741807 45.11340809 -111.19506836 45.11352539 C-112.29427109 45.115746 -113.39347382 45.11796661 -114.52598572 45.12025452 C-117 45 -117 45 -118 44 C-118.24422758 39.56800954 -118.22860266 35.13012358 -118.24023438 30.69213867 C-118.24985577 28.47079812 -118.28082275 26.25041663 -118.3125 24.02929688 C-118.37624626 15.49176127 -117.91064074 8.88987645 -113.4375 1.375 C-88.82179767 -22.60953047 -25.86597174 -21.47363691 0 0 Z M-99 11 C-100.7634617 13.91354542 -101.00837516 15.59799234 -100.9375 19 C-99.76525254 22.75119186 -97.9254922 24.44019433 -95 27 C-94.67 27.33 -94.34 27.66 -94 28 C-88.12658938 28.63919923 -88.12658938 28.63919923 -83.125 25.875 C-80.83938889 22.78270261 -79.60855989 20.80349931 -79 17 C-80.14193845 13.03680186 -81.13547316 10.7243333 -84.3125 8.0625 C-90.37142623 5.66711056 -94.07817663 6.86119399 -99 11 Z " fill="#006494" transform="translate(316,563)"/>
<path d="M0 0 C4.29143157 -0.11742499 8.58244273 -0.18765996 12.875 -0.25 C14.68097656 -0.30027344 14.68097656 -0.30027344 16.5234375 -0.3515625 C28.14372334 -0.47786995 36.23223627 2.15345933 44.67578125 10.265625 C60.06515508 28.37077068 59.96478057 54.62677325 59 77 C57.82568827 91.34919618 53.58034238 106.68366815 42.96875 116.96875 C34.87660915 123.69320507 26.5188261 126.62877697 16.05224609 126.45410156 C15.11444305 126.45468567 14.17664001 126.45526978 13.2104187 126.45587158 C10.14769909 126.45311158 7.08598453 126.42211907 4.0234375 126.390625 C1.88539155 126.38315519 -0.25266128 126.37746576 -2.39071655 126.37347412 C-7.99020631 126.35827617 -13.58927433 126.31904492 -19.18859863 126.2746582 C-24.91343482 126.23357913 -30.63833983 126.2154362 -36.36328125 126.1953125 C-47.57570509 126.15254482 -58.78781733 126.08436469 -70 126 C-70 128.64 -70 131.28 -70 134 C-49.54 134 -29.08 134 -8 134 C-7.938125 139.81625 -7.87625 145.6325 -7.8125 151.625 C-7.77153198 154.36224365 -7.77153198 154.36224365 -7.72973633 157.15478516 C-7.72096687 158.61620422 -7.71332402 160.07763067 -7.70703125 161.5390625 C-7.6840094 162.65897583 -7.6840094 162.65897583 -7.66052246 163.80151367 C-7.65763801 169.61080428 -8.99088668 173.64110475 -12.83984375 178.16015625 C-31.65409122 195.22261159 -60.21797383 193.94563351 -84 193 C-99.2823773 191.81282714 -116.66208746 188.39952954 -127.4375 176.5625 C-133.13425269 169.24040262 -134.14897477 161.36872106 -134.08520508 152.32128906 C-134.07801956 151.03595276 -134.07083405 149.75061646 -134.06343079 148.42633057 C-134.0494914 147.03942156 -134.0348403 145.65251956 -134.01953125 144.265625 C-134.0090957 143.20362507 -134.0090957 143.20362507 -133.99844933 142.12017059 C-133.96119357 138.37266135 -133.91727825 134.62529831 -133.86791992 130.87792969 C-133.81865829 127.03755 -133.79239256 123.19737799 -133.77148914 119.3567543 C-133.75097289 116.37598953 -133.71304582 113.39561854 -133.6706295 110.41509247 C-133.65345747 109.00079403 -133.64263342 107.58640186 -133.63868141 106.1720047 C-133.60309798 96.32301737 -132.85803785 86.76969014 -126.75 78.625 C-117.14991884 69.46128617 -105.67966439 66.89435478 -92.6628418 66.8581543 C-91.96587189 66.85467987 -91.26890198 66.85120544 -90.55081177 66.84762573 C-89.04929575 66.84032062 -87.5477693 66.83494758 -86.04623985 66.83133507 C-83.661096 66.82410316 -81.27615009 66.80838783 -78.8910675 66.78999329 C-72.11368509 66.7378358 -65.33641678 66.68958604 -58.55883789 66.67407227 C-54.40081802 66.66393511 -50.24330712 66.63447345 -46.08548927 66.59275246 C-44.51124754 66.58052562 -42.93693371 66.57530583 -41.3626461 66.57755089 C-29.93682799 66.58983753 -20.03346232 65.36805264 -10.8203125 57.9453125 C-0.11322244 46.50297162 -0.69128835 29.91128304 -0.375 15.25 C-0.33670539 13.76300086 -0.29764758 12.27602117 -0.2578125 10.7890625 C-0.16310095 7.19288911 -0.07863091 3.59656524 0 0 Z M-44 155 C-45.69932147 157.93519164 -46.01645196 159.60515287 -45.875 163 C-44.86530833 166.4618 -43.46052585 168.39035137 -41 171 C-37.77420757 172.61289621 -34.48804367 172.58915133 -31 172 C-26.94139586 169.00016216 -24.801111 166.00694374 -24 161 C-25.13111972 157.0743492 -26.14024287 154.74034641 -29.25 152.0625 C-35.28009824 149.73268932 -39.52842434 150.27290574 -44 155 Z " fill="#FFE353" transform="translate(332,614)"/>
<path d="M0 0 C0.99773437 0.85464844 0.99773437 0.85464844 2.015625 1.7265625 C16.33107786 14.9711744 25.34388188 35.24781126 26.38671875 54.578125 C26.73755897 66.31080674 25.77939774 76.86072245 22 88 C21.649375 89.051875 21.29875 90.10375 20.9375 91.1875 C13.52478151 110.95474932 -2.41717429 126.60695903 -21.28515625 135.55859375 C-43.31571834 144.57961371 -66.65777394 144.5131185 -88.69921875 135.578125 C-110.63491913 125.09052387 -124.95408491 107.82891434 -133.3828125 85.3046875 C-139.69975976 64.1451229 -137.235299 41.07604702 -127.20288086 21.59130859 C-124.08177683 15.84653319 -120.4244873 10.82209897 -116 6 C-115.33613281 5.24460937 -114.67226562 4.48921875 -113.98828125 3.7109375 C-83.85381929 -28.7072822 -32.5660994 -28.03622843 0 0 Z " fill="#41CD52" transform="translate(206,90)"/>
<path d="M0 0 C11.20963291 12.03761715 15.44241474 27.19527261 15.26953125 43.2734375 C14.44032472 59.05965234 7.58296981 72.47124773 -3.9375 83.21484375 C-16.86062028 94.07621622 -32.25742037 98.56359123 -48.9375 97.21484375 C-65.30302323 94.85408607 -78.75483782 87.21749443 -88.9765625 74.09765625 C-98.95829907 59.42331046 -101.22070659 42.64064535 -98.28515625 25.37890625 C-93.96623021 10.06803541 -84.68014259 -2.25781246 -70.9375 -10.22265625 C-46.97680753 -23.42115186 -19.75495086 -18.37915964 0 0 Z " fill="#41CD52" transform="translate(300.9375,204.78515625)"/>
<path d="M0 0 C13.86 0 27.72 0 42 0 C42 78.87 42 157.74 42 239 C28.14 239 14.28 239 0 239 C0 160.13 0 81.26 0 0 Z " fill="#41CD52" transform="translate(1365,667)"/>
<path d="M0 0 C1.36125 1.051875 1.36125 1.051875 2.75 2.125 C3.31203125 2.53234375 3.8740625 2.9396875 4.453125 3.359375 C12.41550657 9.52156595 17.67203286 19.22601028 19.21875 29.125 C20.61298277 42.56033401 17.88522727 53.80211202 9.7890625 64.78515625 C2.38377683 73.28279248 -8.2882466 78.57624553 -19.48046875 79.34765625 C-33.02551444 79.68739022 -42.92673947 76.78250957 -53 67.625 C-54.11375 66.3875 -54.11375 66.3875 -55.25 65.125 C-56.4875 63.8565625 -56.4875 63.8565625 -57.75 62.5625 C-65.36053965 53.09749342 -67.09644773 41.28087661 -65.875 29.51171875 C-63.8672729 18.03002942 -58.65921141 9.31266888 -49.72265625 1.84765625 C-34.78967452 -8.55589026 -15.60061752 -9.00035626 0 0 Z " fill="#41CD52" transform="translate(246.25,5.875)"/>
<path d="M0 0 C6.4246582 6.79178152 10.20638678 13.62658056 10.1796875 23.078125 C9.56087962 32.92524163 6.17786624 39.45656388 -0.8125 46.3125 C-8.31381763 52.12984837 -15.50644324 53.26185844 -24.8125 52.3125 C-33.50471585 50.06031522 -39.40789147 45.85977108 -44.125 38.1875 C-48.52445278 30.58949493 -49.36743047 22.17729211 -47.09375 13.6015625 C-43.19016307 4.37776435 -36.8747581 -0.85844622 -28 -5 C-17.83785122 -7.19183601 -8.87697146 -5.32618288 0 0 Z " fill="#41CD52" transform="translate(1404.8125,545.6875)"/>
</svg>
